# xmcd
#
# Track frame offsets: 
#        150
#        11706
#        23185
#        36255
#        50563
#        61371
#        84867
#        100558
#        144463
#        176414
#        202141
#        232843
#        252518
#        267678
#        283408
#
# Disc length: 4044 seconds
#
# Revision: 1
# Processed by: cddbd v1.5.2PL0 Copyright (c) Steve Scherf et al.
# Submitted via: ExactAudioCopy v0.99pb4
#
DISCID=d70fca0f
DTITLE=Various Artist - Nederlandse Jazz, geschiedenis
DYEAR=1998
DGENRE=Jazz
TTITLE0=The Ramblers - Some of these Days 1935
TTITLE1=AVRO Dansorkest - Crazy Rhythm 1938
TTITLE2=Dutch Swing College Band - I've Found a New Baby 1959
TTITLE3=Pia Beck - Pia's Boogie 1950
TTITLE4=Rita Reys - He's My Guy 1957
TTITLE5=Piet Noordijk Quartet - Star Eyes 1997
TTITLE6=Ruud Brink and Het Metropool Orkest - Broadway 1986
TTITLE7=The Rein van der Graaff Trio - A Night In Tunesia 1995
TTITLE8=Willem Breuker Kollektief and Mondriaan Strings - Congratulation
TTITLE8=Cigar 1991
TTITLE9=Ben van den Dungen and Jarmo Hoogendijk Quintet - Trouble Ahes 1
TTITLE9=993
TTITLE10=Michiel Borstlap - Gijs 1995
TTITLE11=The Houdini's - What Is This Thing Called Love? 1995
TTITLE12=Saskia Laroo - Jazz Party 1998
TTITLE13=New Cool Collective - Five High 1994
TTITLE14=Hans Dulfer - Front Runnin' 1998
EXTD=YEAR: 1998
EXTT0=
EXTT1=
EXTT2=
EXTT3=
EXTT4=
EXTT5=
EXTT6=
EXTT7=
EXTT8=
EXTT9=
EXTT10=
EXTT11=
EXTT12=
EXTT13=
EXTT14=
PLAYORDER=
